<svg xmlns="http://www.w3.org/2000/svg" xmlns:xlink="http://www.w3.org/1999/xlink" viewBox="0 0 37 42">
  <defs>
    <style>
      .cls-1 {
        fill: url(#radial-gradient);
      }
      .cls-2 {
        fill: #0080b8;
      }
      .cls-3 {
        mix-blend-mode: screen;
      }
      .cls-4 {
        fill: url(#linear-gradient);
      }
      .cls-5 {
        fill: url(#linear-gradient-2);
      }
    </style>
    <radialGradient id="radial-gradient" cx="325.74" cy="16274.42" r="33.51" gradientTransform="translate(16313.11 -308.31) rotate(90)" gradientUnits="userSpaceOnUse">
      <stop offset="0" stop-color="#d1edfb"/>
      <stop offset="1" stop-color="#3da3db"/>
    </radialGradient>
    <linearGradient id="linear-gradient" x1="50.94" y1="21.06" x2="-17.6" y2="37.91" gradientUnits="userSpaceOnUse">
      <stop offset="0" stop-color="#fff"/>
      <stop offset="1"/>
    </linearGradient>
    <linearGradient id="linear-gradient-2" x1="0.35" y1="2.73" x2="20.34" y2="27.73" xlink:href="#linear-gradient"/>
    <symbol id="Bullet_7_-_Blue" data-name="Bullet 7 - Blue" viewBox="0 0 37.5 41.88">
      <g>
        <path class="cls-1" d="M3.85,41.38C1.78,41.38.5,39.68.5,36.94v-32C.5,2.2,1.78.5,3.85.5a5.83,5.83,0,0,1,2.83.87l27.71,16c1.68,1,2.61,2.24,2.61,3.57s-.93,2.6-2.61,3.57l-27.71,16A5.83,5.83,0,0,1,3.85,41.38Z"/>
        <path class="cls-2" d="M3.85,1h0a5.36,5.36,0,0,1,2.58.8l27.71,16c1.52.88,2.36,2,2.36,3.14s-.84,2.25-2.36,3.13l-27.71,16a5.31,5.31,0,0,1-2.58.81C2.07,40.88,1,39.41,1,36.94v-32C1,2.47,2.07,1,3.85,1m0-1C1.57,0,0,1.81,0,4.94v32c0,3.12,1.57,4.94,3.85,4.94a6.24,6.24,0,0,0,3.08-.94l27.71-16c3.81-2.2,3.81-5.8,0-8L6.93.94A6.24,6.24,0,0,0,3.85,0Z"/>
      </g>
      <g class="cls-3">
        <path class="cls-4" d="M33.64,18.67l-.83-.48a2.3,2.3,0,0,1,.93,1.61c0,.77-.68,1.6-1.88,2.29L4,38.2a5.09,5.09,0,0,1-1.6.63,1.58,1.58,0,0,0,1.5,1.05,4.33,4.33,0,0,0,2.08-.67l27.71-16c1.18-.68,1.86-1.51,1.86-2.27S34.82,19.35,33.64,18.67Z"/>
      </g>
      <g class="cls-3">
        <path class="cls-5" d="M19.39,16.43a52.73,52.73,0,0,1,7.43-1.7L5.93,2.67A4.33,4.33,0,0,0,3.85,2C2.18,2,2,4.05,2,4.94V25.88A45.86,45.86,0,0,1,19.39,16.43Z"/>
      </g>
    </symbol>
  </defs>
  <title>Asset 5</title>
  <g id="Layer_2" data-name="Layer 2">
    <g id="Layer_1-2" data-name="Layer 1">
      <use width="37.5" height="41.88" transform="scale(0.99 1)" xlink:href="#Bullet_7_-_Blue"/>
    </g>
  </g>
</svg>
