<svg xmlns="http://www.w3.org/2000/svg" viewBox="0 0 252.8 93.93">
  <defs>
    <style>
      .cls-1 {
        fill: #fefefe;
      }

      .cls-2 {
        fill: #1b1b1b;
      }

      .cls-3 {
        fill: #636363;
      }

      .cls-4 {
        fill: #c2c2c2;
      }

      .cls-5 {
        fill: #e7e7e7;
      }
    </style>
  </defs>
  <title>Asset 7</title>
  <g id="Layer_2" data-name="Layer 2">
    <g id="Layer_1-2" data-name="Layer 1">
      <g>
        <path class="cls-1" d="M126.4,93.83c-40.51,0-81-.07-121.53.1C.9,94,0,93,0,89.06Q.3,47,0,4.87C0,.89.9,0,4.87,0Q126.4.2,247.93,0c4,0,4.9.89,4.87,4.87q-.3,42.09,0,84.19c0,4-.9,4.89-4.87,4.87C207.42,93.76,166.91,93.83,126.4,93.83Z"/>
        <path class="cls-2" d="M176.34,33.32c1.79-3.53,4.62-5.53,9.24-6.07-1.47,2.85-2.91,5.2-3.91,7.72a4.51,4.51,0,0,0,1.93,5.56,6.76,6.76,0,0,0,6.8.89c3.71-1.72.59-2.88-.44-4.45-.83-1.26.31-2.54,1.53-3.14a4.5,4.5,0,0,1,5.21.52c4.32,3.84,8.9,4.47,14.37,2.42,3.81-1.42,7.22.11,10,4.48C212.89,43,205.68,45.66,199,50.43c-6,4.26-15.23,1.5-19.79-4.7-2.37-3.21-4.81-4.18-8.57-4.17-34.66.11-69.32.06-104,.08-2.81,0-5.32-.29-7.46,2.91C52.76,54.17,44.44,55.93,34,50.43c-3-1.6-5.72-4-8.86-5.22s-6.61-1.63-10.78-2.58c3.11-3.87,6.56-5.58,10.92-4.46,5.38,1.39,10.31,1.81,14.86-2.38A4.3,4.3,0,0,1,46,36c2.3,2.05.47,2.92-1.11,4.12-.87.66-.63,1.94.47,2.61,2,1.21,4,.94,6.11.26A5,5,0,0,0,55,38.24c.29-3.63-2.54-6.05-4.49-9.66,4.43,0,6.53,2.21,8.54,4.6.59,1.11,1.84,1.24,2.78,1.84,1.52.86,3.2.75,4.87.81,34.63,0,69.25.06,103.85,0A6.8,6.8,0,0,0,176.34,33.32Z"/>
        <path class="cls-3" d="M60.71,35.07l-1.65-1.89,117.28.14c-.1,1.75.53,3.74-1.56,4.85a7,7,0,0,0-2.67-1.32c-33.82-.5-67.64,0-101.46-.25C67.3,36.58,63.72,37.51,60.71,35.07Z"/>
        <path class="cls-4" d="M60.71,35.07q52.17,0,104.34,0c3.33,0,6.89-.86,9.91,1.49-2.69,1.63-5.66.8-8.49.81-31.89.07-63.78,0-95.67.07-2.87,0-5.8-.48-8.62.5C60.39,37.65,60.76,36.26,60.71,35.07Z"/>
        <path class="cls-5" d="M62.18,38c3.45-1.83,7.2-1.3,10.86-1.3q51-.07,101.92-.08l-.18,1.59Z"/>
      </g>
    </g>
  </g>
</svg>
