<svg id="4fa39a2d-8804-4620-abd1-ad336da769c5" data-name="Layer 1" xmlns="http://www.w3.org/2000/svg" xmlns:xlink="http://www.w3.org/1999/xlink" viewBox="0 0 37 47"><defs><linearGradient id="cd3e208c-2b6a-4539-84d1-f3a13d52fed4" x1="72.51" y1="31.87" x2="72.51" y2="-0.13" gradientUnits="userSpaceOnUse"><stop offset="0" stop-color="#e3f4fc"/><stop offset="1" stop-color="#7bc1ea"/></linearGradient><linearGradient id="cc8813b7-1f13-4ce2-958c-8d685fe04e86" x1="72.51" y1="-1.47" x2="72.51" y2="21.53" gradientUnits="userSpaceOnUse"><stop offset="0" stop-color="#fffbd4"/><stop offset="1"/></linearGradient><symbol id="0b01e43c-6ac0-438e-a108-1c49a6009bb2" data-name="Button 4 - Blue" viewBox="0 0 145.01 33"><path d="M16.5,32.5a16,16,0,0,1,0-32h112a16,16,0,0,1,0,32Z" style="fill:url(#cd3e208c-2b6a-4539-84d1-f3a13d52fed4)"/><path d="M128.51,1a15.5,15.5,0,0,1,0,31H16.5a15.5,15.5,0,0,1,0-31h112m0-1H16.5a16.5,16.5,0,0,0,0,33h112a16.5,16.5,0,0,0,0-33Z" style="fill:#29a6d5"/><g style="mix-blend-mode:screen"><path d="M138.09,10.44c0,4.33-4.5,7.87-10,7.87H16.92c-5.5,0-10-3.54-10-7.87s4.5-7.86,10-7.86H128.09C133.59,2.58,138.09,6.12,138.09,10.44Z" style="fill:url(#cc8813b7-1f13-4ce2-958c-8d685fe04e86)"/></g></symbol></defs><title>pause</title><use width="145.01" height="33" transform="matrix(0, 0.32, -0.45, 0, 15, 0)" xlink:href="#0b01e43c-6ac0-438e-a108-1c49a6009bb2"/><use width="145.01" height="33" transform="matrix(0, 0.32, -0.45, 0, 37, 0)" xlink:href="#0b01e43c-6ac0-438e-a108-1c49a6009bb2"/></svg>